<svg width="50" height="50" viewBox="0 0 50 50" fill="none" xmlns="http://www.w3.org/2000/svg">
<path d="M25.0002 35.5032L11.304 21.8069C10.7327 21.2356 9.80493 21.2356 9.23364 21.8069C8.66235 22.3782 8.66235 23.3059 9.23364 23.8772L23.9651 38.6086C24.5364 39.1799 25.4641 39.1799 26.0354 38.6086L40.7717 23.8772C41.0598 23.5891 41.2014 23.218 41.2014 22.8421C41.2014 22.4661 41.0598 22.0901 40.7717 21.8069C40.2004 21.2356 39.2727 21.2356 38.7014 21.8069L25.0002 35.5032ZM38.6965 11.387L25.0002 25.0882L11.304 11.3919C10.7327 10.8206 9.80493 10.8206 9.23364 11.3919C8.66235 11.9632 8.66235 12.8909 9.23364 13.4622L23.9651 28.1936C24.5364 28.7649 25.4641 28.7649 26.0354 28.1936L40.7717 13.4622C41.0598 13.1741 41.2014 12.803 41.2014 12.427C41.2014 12.0511 41.0598 11.6751 40.7717 11.3919C40.1956 10.8157 39.2727 10.8157 38.6965 11.387Z" fill="#196FEE"/>
</svg>
