<svg width="50" height="50" viewBox="0 0 50 50" fill="none" xmlns="http://www.w3.org/2000/svg">
<path d="M24.9998 14.4958L38.696 28.1921C39.2673 28.7634 40.1951 28.7634 40.7664 28.1921C41.3376 27.6208 41.3376 26.6931 40.7664 26.1218L26.0349 11.3904C25.4636 10.8191 24.5359 10.8191 23.9646 11.3904L9.22827 26.1218C8.94019 26.4099 8.79858 26.781 8.79858 27.157C8.79858 27.5329 8.94019 27.9089 9.22827 28.1921C9.79956 28.7634 10.7273 28.7634 11.2986 28.1921L24.9998 14.4958ZM11.3035 38.612L24.9998 24.9109L38.696 38.6071C39.2673 39.1784 40.1951 39.1784 40.7664 38.6071C41.3376 38.0359 41.3376 37.1081 40.7664 36.5368L26.0349 21.8054C25.4636 21.2341 24.5359 21.2341 23.9646 21.8054L9.22827 36.5368C8.94019 36.8249 8.79858 37.196 8.79858 37.572C8.79858 37.948 8.94019 38.3239 9.22827 38.6071C9.80444 39.1833 10.7273 39.1833 11.3035 38.612Z" fill="#196FEE"/>
</svg>
