<svg width="645" height="662" viewBox="0 0 645 662" fill="none" xmlns="http://www.w3.org/2000/svg">
<ellipse cx="325" cy="334.5" rx="251" ry="210.5" fill="#196FEE" fill-opacity="0.3"/>
<ellipse cx="322.5" cy="270" rx="322.5" ry="270" fill="#196FEE" fill-opacity="0.3"/>
<path d="M140.822 595.242C139.089 595.242 137.356 594.74 135.851 593.782L105.71 574.357C103.338 572.852 101.834 570.298 101.56 567.517C101.286 564.735 102.335 561.954 104.387 559.993C104.661 559.719 133.07 532.359 141.551 488.674C136.079 483.613 127.962 474.174 128.692 462.774C129.057 457.256 131.61 449.641 141.323 442.938C141.46 430.717 143.193 402.946 155.824 387.306L113.507 366.968C110.178 365.372 108.172 361.952 108.354 358.258C108.537 354.565 110.908 351.373 114.374 350.096L324.27 273.306C326.277 272.53 328.557 272.576 330.609 273.306L542.466 351.054C546.069 352.376 548.44 355.796 548.486 359.626C548.486 363.457 546.114 366.877 542.512 368.245L330.609 447.178C328.557 447.954 326.277 447.954 324.225 447.178L219.755 408.099C216.198 406.777 213.873 403.402 213.782 399.663C213.736 395.878 216.016 392.458 219.527 391.045L328.42 347.086C328.511 346.357 328.557 345.718 328.557 345.171L202.518 395.377C201.606 395.787 179.855 405.318 179.126 443.85C182.272 446.95 186.057 452.149 187.06 459.354C188.109 467.151 185.601 475.04 179.627 482.883C182.272 502.035 189.705 578.096 143.922 594.74C142.965 595.059 141.87 595.242 140.822 595.242Z" fill="#196FEE"/>
<path d="M328.329 538.469C286.924 538.469 230.608 531.493 197.502 498.296C194.31 495.104 193.945 490.042 196.59 486.394C198.733 483.43 203.932 473.9 202.336 465.646C201.424 460.995 198.46 457.164 193.262 453.881C190.617 452.194 188.975 449.276 188.975 446.129V416.991C188.975 414.027 190.389 411.291 192.806 409.558C195.222 407.825 198.277 407.369 201.059 408.281L332.25 452.012L461.481 408.281C464.262 407.369 467.363 407.78 469.78 409.512C472.197 411.245 473.61 414.027 473.61 416.945V484.935C473.61 485.528 473.565 486.166 473.428 486.713C472.425 491.775 463.213 517.812 380.769 534.685C379.446 535.049 357.695 538.469 328.329 538.469Z" fill="#196FEE"/>
</svg>
